<svg width="47" height="48" viewBox="0 0 47 48" fill="none" xmlns="http://www.w3.org/2000/svg">
<path d="M47 23.79C47 29.2269 45.1148 34.4955 41.6657 38.6983C38.2166 42.901 33.417 45.7778 28.0846 46.8385C22.7522 47.8992 17.2171 47.0781 12.4222 44.5152C7.62731 41.9523 3.86942 37.8061 1.78883 32.7831C-0.291761 27.7601 -0.566332 22.1711 1.0119 16.9684C2.59013 11.7656 5.92352 7.27106 10.4441 4.2505C14.9647 1.22995 20.3927 -0.129706 25.8034 0.403198C31.2141 0.936101 36.2726 3.3286 40.117 7.17303L37.5485 9.74152C34.2983 6.49133 30.0217 4.46864 25.4474 4.01811C20.873 3.56757 16.284 4.71707 12.4622 7.27073C8.64032 9.8244 5.82218 13.6242 4.48789 18.0228C3.15361 22.4213 3.38574 27.1465 5.14473 31.393C6.90373 35.6396 10.0808 39.1449 14.1345 41.3117C18.1882 43.4785 22.8678 44.1726 27.376 43.2759C31.8841 42.3792 35.9419 39.947 38.8579 36.3939C41.7738 32.8408 43.3676 28.3865 43.3676 23.79H47Z" fill="white"/>
</svg>
