<svg width="17" height="18" viewBox="0 0 17 18" fill="none" xmlns="http://www.w3.org/2000/svg">
<path d="M1.03014 4.73427C1.96848 3.00606 3.47703 1.65667 5.29874 0.916024C7.12046 0.175376 9.14263 0.0892966 11.0207 0.672451C12.8988 1.25561 14.5165 2.47191 15.5983 4.11413C16.6802 5.75635 17.1591 7.72287 16.9535 9.67861C16.748 11.6344 15.8706 13.4583 14.471 14.8397C13.0714 16.2211 11.2361 17.0745 9.27785 17.2545C7.31958 17.4344 5.3595 16.9298 3.73159 15.8266C2.10367 14.7233 0.908642 13.0898 0.35012 11.2043L1.72732 10.7963C2.19146 12.3632 3.18455 13.7207 4.53738 14.6375C5.89021 15.5543 7.51907 15.9737 9.14642 15.8241C10.7738 15.6746 12.2989 14.9654 13.462 13.8175C14.6251 12.6695 15.3542 11.1537 15.525 9.52847C15.6959 7.90321 15.2979 6.269 14.3989 4.90429C13.4999 3.53958 12.1555 2.52881 10.5948 2.04419C9.03405 1.55958 7.35359 1.63111 5.83972 2.24661C4.32584 2.8621 3.07221 3.98346 2.29243 5.41964L1.03014 4.73427Z" fill="white"/>
</svg>
