<svg width="5" height="6" viewBox="0 0 5 6" fill="none" xmlns="http://www.w3.org/2000/svg">
<path d="M1.70677 0.419222C2.25527 0.235696 2.85044 0.248033 3.39086 0.45413C3.93128 0.660228 4.38352 1.04733 4.67053 1.54949C4.95754 2.05165 5.06155 2.63778 4.96484 3.20803C4.86814 3.77827 4.5767 4.29735 4.14018 4.6768C3.70367 5.05626 3.14908 5.27262 2.57093 5.28903C1.99277 5.30543 1.42682 5.12085 0.96949 4.76675C0.512164 4.41266 0.191766 3.91094 0.0628866 3.34709C-0.0659927 2.78325 0.00462127 2.19216 0.262697 1.67454L1.13943 2.11166C0.98249 2.42644 0.939548 2.78591 1.01792 3.1288C1.0963 3.47169 1.29114 3.7768 1.56926 3.99214C1.84737 4.20748 2.19155 4.31973 2.54315 4.30975C2.89474 4.29978 3.232 4.1682 3.49746 3.93744C3.76292 3.70668 3.94015 3.39101 3.99896 3.04423C4.05777 2.69744 3.99452 2.34099 3.81998 2.03562C3.64545 1.73024 3.37042 1.49483 3.04177 1.36949C2.71312 1.24416 2.35118 1.23666 2.01762 1.34826L1.70677 0.419222Z" fill="white"/>
</svg>
