<svg width="25" height="26" viewBox="0 0 25 26" fill="none" xmlns="http://www.w3.org/2000/svg">
<path d="M12.5 0.290036C15.3919 0.290036 18.1944 1.29278 20.4299 3.1274C22.6654 4.96203 24.1956 7.51503 24.7598 10.3514C25.324 13.1878 24.8873 16.132 23.524 18.6825C22.1608 21.233 19.9554 23.2318 17.2835 24.3385C14.6117 25.4452 11.6389 25.5913 8.87144 24.7518C6.10403 23.9123 3.71331 22.1392 2.10663 19.7347C0.499954 17.3301 -0.223269 14.4428 0.0601908 11.5648C0.34365 8.68681 1.61625 5.99611 3.66116 3.9512L5.02739 5.31742C3.29856 7.04625 2.22266 9.32105 1.98301 11.7542C1.74337 14.1874 2.3548 16.6283 3.71314 18.6612C5.07147 20.6941 7.09266 22.1931 9.43231 22.9029C11.772 23.6126 14.2853 23.4891 16.5442 22.5535C18.803 21.6178 20.6675 19.9279 21.82 17.7717C22.9726 15.6155 23.3418 13.1263 22.8648 10.7283C22.3878 8.33039 21.0941 6.17201 19.2042 4.62096C17.3142 3.06991 14.9449 2.22216 12.5 2.22216L12.5 0.290036Z" fill="white"/>
</svg>
