<svg width="35" height="35" viewBox="0 0 35 35" fill="none" xmlns="http://www.w3.org/2000/svg">
<path d="M9.01585 33.0958C5.47476 31.1329 2.72382 28.003 1.23174 24.2392C-0.260334 20.4755 -0.401219 16.3108 0.83309 12.4548C2.0674 8.59883 4.60053 5.29012 8.00088 3.09244C11.4012 0.894766 15.4584 -0.0558993 19.4811 0.402428C23.5038 0.860756 27.2431 2.69972 30.0619 5.60598C32.8807 8.51224 34.6047 12.306 34.9399 16.3408C35.2752 20.3756 34.2011 24.4018 31.9006 27.7335C29.6001 31.0651 26.2156 33.496 22.3237 34.612L21.5781 32.0118C24.8684 31.0683 27.7298 29.0132 29.6747 26.1965C31.6196 23.3798 32.5277 19.9759 32.2442 16.5648C31.9608 13.1536 30.5033 9.9463 28.1202 7.48926C25.7371 5.03222 22.5758 3.4775 19.1749 3.09002C15.774 2.70254 12.3439 3.50626 9.46916 5.36424C6.59441 7.22222 4.45282 10.0195 3.4093 13.2795C2.36578 16.5394 2.48489 20.0604 3.74633 23.2424C5.00778 26.4243 7.33351 29.0705 10.3273 30.73L9.01585 33.0958Z" fill="white"/>
</svg>
