<svg width="9" height="10" viewBox="0 0 9 10" fill="none" xmlns="http://www.w3.org/2000/svg">
<path d="M8.21967 7.32274C7.63374 8.1833 6.76754 8.81407 5.76867 9.10758C4.7698 9.40109 3.70007 9.33917 2.74173 8.93239C1.78339 8.5256 0.995754 7.7991 0.513015 6.87669C0.0302758 5.95427 -0.117694 4.89301 0.0943167 3.87373C0.306328 2.85445 0.865202 1.94021 1.67571 1.28679C2.48623 0.633372 3.49823 0.281203 4.53929 0.290288C5.58035 0.299374 6.58605 0.669151 7.38503 1.33661C8.18402 2.00408 8.72685 2.92793 8.92104 3.95076L8.09344 4.10788C7.9356 3.27653 7.49438 2.52562 6.84496 1.9831C6.19555 1.44059 5.37811 1.14003 4.53194 1.13265C3.68576 1.12526 2.86321 1.41151 2.20442 1.94261C1.54563 2.47371 1.09138 3.2168 0.919056 4.04527C0.746733 4.87375 0.867003 5.73634 1.25938 6.48608C1.65175 7.23582 2.29194 7.82632 3.07088 8.15696C3.84982 8.4876 4.7193 8.53792 5.53118 8.29936C6.34306 8.06079 7.04711 7.5481 7.52336 6.84863L8.21967 7.32274Z" fill="white"/>
</svg>
